<svg width="900" height="195" viewBox="0 0 900 195" fill="none" xmlns="http://www.w3.org/2000/svg">
    <path fill-rule="evenodd" clip-rule="evenodd" d="M101.197 44.1994L7.21443 118.28H107.522V149.978L201.505 75.8973H101.197V44.1994ZM0.00024724 118.28V80.3251L107.522 0V37.9484H208.719L208.719 70.2108V113.852L101.197 194.177V156.229H0V118.28H0.00024724Z" fill="white"/>
    <path d="M560.466 37.4893H580.493V138.612L639.656 138.612V37.4893H659.683V138.612H670.749V156.046L560.402 156.046L560.402 138.612H560.466V37.4893Z" fill="white"/>
    <path fill-rule="evenodd" clip-rule="evenodd" d="M475.597 159.815C511.443 159.815 547.343 135.13 547.343 97.0082C547.343 58.8865 511.443 34.2012 475.597 34.2012C439.751 34.2012 403.851 58.8865 403.851 97.0082C403.851 135.13 439.751 159.815 475.597 159.815ZM527.959 97.0082C527.959 120.478 503.993 140.45 475.597 140.45C447.201 140.45 423.235 120.478 423.235 97.0082C423.235 73.5386 447.201 53.5667 475.597 53.5667C503.993 53.5667 527.959 73.5386 527.959 97.0082Z" fill="white"/>
    <path d="M313.341 37.585V112.434C313.341 127.769 300.814 139.536 286.321 139.547V159.538C311.524 159.549 333.32 139.096 333.32 112.434V57.5318H371.437V156.02H391.416V37.585H313.341Z" fill="white"/>
    <path d="M769.476 156.073V66.604L705.466 156.073H685.72V37.5156H705.466V126.984L769.476 37.5156H789.222V156.073H769.476Z" fill="white"/>
    <path fill-rule="evenodd" clip-rule="evenodd" d="M843.448 37.6318C823.238 37.6318 806.855 54.0178 806.855 74.2308C806.855 89.8648 816.656 103.209 830.448 108.453L803.471 156.067H824.776L850.406 110.83H880.053V156.066H900L900 37.6318H843.448ZM844.838 57.5788C835.664 57.5788 828.227 65.0342 828.227 74.2309C828.227 83.4276 835.664 90.883 844.838 90.883H880.053V57.5788H844.838Z" fill="white"/>
</svg>
